# xmcd
#
# Track frame offsets:
#	150
#	13412
#	27122
#	41887
#	57642
#	70330
#	81567
#	96022
#	109305
#	123782
#	140522
#	152457
#	166620
#	181435
#	195047
#	209507
#	221112
#	235290
#	247837
#	262030
#	274730
#	288867
#
# Disc length: 4023 seconds
#
# Revision: 0
# Processed by: cddbd v1.5.1PL0 Copyright (c) Steve Scherf et al.
# Submitted via: dBpowerAMP V4.0
#
DISCID=420fb516
DTITLE=Sara Martin - The Famous Moanin' Mama 1922-27
DYEAR=2001
DGENRE=Blues
TTITLE0='Taint Nobody's Bus'ness If I Do
TTITLE1=You've Got Ev'rything A Sweet Papa Needs But Me
TTITLE2=Mama's Got The Blues
TTITLE3=Last Go Round Blues
TTITLE4=Come Home Papa Blues
TTITLE5=It Takes A Long Time To Get 'Em But You Can Lose 'Em Overnight
TTITLE6=Blind Man Blues
TTITLE7=Atlanta Blues
TTITLE8=Graveyard Dream Blues
TTITLE9=A Green Gal Can't Catch On Blues
TTITLE10=Down At The Razor Ball
TTITLE11=I'm Gonna Hoodoo You
TTITLE12=Your Going Ain't Giving Me The Blues
TTITLE13=What More Can A Monkey Woman Do?
TTITLE14=What's The Matter Now
TTITLE15=A Want Every Bit Of It 
TTITLE16=Brother Ben
TTITLE17=The Prisoner's Blues
TTITLE18=Careless Man Blues
TTITLE19=How Could I Be Blue?
TTITLE20=Cushion Foot Stomp
TTITLE21=Take Your Black Bottom Outside
EXTD=
EXTT0=
EXTT1=
EXTT2=
EXTT3=
EXTT4=
EXTT5=
EXTT6=
EXTT7=
EXTT8=
EXTT9=
EXTT10=
EXTT11=
EXTT12=
EXTT13=
EXTT14=
EXTT15=
EXTT16=
EXTT17=
EXTT18=
EXTT19=
EXTT20=
EXTT21=
PLAYORDER=
